<svg xmlns="http://www.w3.org/2000/svg" xmlns:xlink="http://www.w3.org/1999/xlink" width="89" zoomAndPan="magnify" viewBox="0 0 66.75 30.000001" height="40" preserveAspectRatio="xMidYMid meet" version="1.0"><path fill="#102542" d="M 25.765625 19.8125 L 20.703125 19.8125 L 20.703125 12.117188 L 16.179688 19.8125 L 12.402344 19.8125 L 7.886719 12.117188 L 7.886719 19.8125 L 2.820312 19.8125 L 2.820312 7.746094 L 8.835938 7.746094 L 14.296875 16.363281 L 19.746094 7.746094 L 25.765625 7.746094 Z M 25.765625 19.8125 " fill-opacity="1" fill-rule="nonzero"/><path fill="#102542" d="M 47.382812 19.8125 L 42.253906 19.8125 L 41.117188 17.835938 L 33.503906 17.835938 L 32.367188 19.8125 L 27.238281 19.8125 L 34.960938 7.753906 L 39.664062 7.753906 Z M 39.410156 14.851562 L 37.316406 11.191406 L 35.210938 14.851562 Z M 39.410156 14.851562 " fill-opacity="1" fill-rule="nonzero"/><path fill="#102542" d="M 64.902344 19.8125 L 59.769531 19.8125 L 56.273438 16.113281 L 52.765625 19.8125 L 47.636719 19.8125 L 53.917969 13.640625 L 47.636719 7.753906 L 52.765625 7.753906 L 56.273438 11.207031 L 59.769531 7.753906 L 64.902344 7.753906 L 58.617188 13.640625 Z M 64.902344 19.8125 " fill-opacity="1" fill-rule="nonzero"/></svg>