<?xml version="1.0" encoding="UTF-8" standalone="no"?>
<!DOCTYPE svg PUBLIC "-//W3C//DTD SVG 1.1//EN" "http://www.w3.org/Graphics/SVG/1.1/DTD/svg11.dtd">
<svg width="70" height="40" version="1.1" xmlns="http://www.w3.org/2000/svg"
    xmlns:xlink="http://www.w3.org/1999/xlink" xml:space="preserve"
    xmlns:serif="http://www.serif.com/"
    style="fill-rule:evenodd;clip-rule:evenodd;stroke-linejoin:round;stroke-miterlimit:2;"><g transform="matrix(5.55556,0,0,5.55556,0,0)"><g id="X" transform="matrix(0.185822,0,0,0.231146,4.97714e-16,-0.55182)"><g transform="matrix(2.14704,0.781457,-1.34277,3.68924,54.7345,-2.28916)"><path d="M3.434,0.54l-2.034,0.431l-0.03,6.69l2.117,-0.449l-0.053,-6.672Z"/></g><g transform="matrix(2.14704,-0.781457,1.34308,3.69009,44.1914,1.50495)"><path d="M3.486,0.977l0.016,6.684l-2.14,-0.451l0.153,-6.65l1.971,0.417Z"/></g></g><g id="A" transform="matrix(0.185822,0,0,0.231146,4.17253,-0.55182)"><g transform="matrix(1.89213e-16,-1.99074,1.01111,7.55938e-16,11.7714,24.6103)"><rect x="1.365" y="0.957" width="2.127" height="6.253"/></g><g transform="matrix(2.14704,0.781457,-1.34277,3.68924,7.88719,-2.28916)"><path d="M3.434,0.54l-2.034,0.431l-0.03,6.69l2.117,-0.449l-0.053,-6.672Z"/></g><g transform="matrix(2.14704,-0.781457,1.34308,3.69009,7.12671,1.50495)"><path d="M3.486,0.977l0.016,6.684l-2.14,-0.451l0.153,-6.65l1.971,0.417Z"/></g></g><g id="M" transform="matrix(0.185822,0,0,0.231146,4.97714e-16,-0.55182)"><g transform="matrix(2.14704,0.781457,-1.34277,3.68924,7.34475,-2.28916)"><path d="M3.434,0.54l-2.034,0.431l-0.03,6.69l2.117,-0.449l-0.053,-6.672Z"/></g><g transform="matrix(2.14704,-0.781457,1.34308,3.69009,5.18829,1.50495)"><path d="M3.486,0.977l0.016,6.684l-2.14,-0.451l0.153,-6.65l1.971,0.417Z"/></g></g></g></svg>